<svg
   xmlns="http://www.w3.org/2000/svg"
   xml:space="preserve"
   width="512"
   height="512"
   style="enable-background: new 0 0 512 512"
   viewBox="0 0 68 68"
>
   <path
      fill="#00d67f"
      d="M9.144 10.306 2.49 11.733a.62.62 0 1 0 .26 1.213c.103-.022-.133.053 6.482-2.335a.16.16 0 0 0-.088-.305z"
      data-original="#00d67f"
   />
   <path
      fill="#fc6559"
      d="m9.378 9.288-4.47-1.33a.556.556 0 1 0-.234 1.086c.101.013 4.703.608 4.603.594l.026.003a.181.181 0 0 0 .075-.353z"
      data-original="#fc6559"
   />
   <path
      fill="#00d67f"
      d="M10.072 9.161c-.732-2.215-1.226-4.483-1.98-6.754a.594.594 0 1 0-1.099.446c1.145 2.373 1.88 4.387 2.862 6.4a.118.118 0 0 0 .158.053.12.12 0 0 0 .059-.145z"
      data-original="#00d67f"
   />
   <path
      fill="#fc6559"
      d="M10.757 8.419c.428-1.734 1.21-3.335 2.001-4.949a.475.475 0 1 0-.875-.365c-.591 1.698-1.197 3.446-1.417 5.26a.148.148 0 0 0 .291.054z"
      data-original="#fc6559"
   />
   <path
      fill="#7979f7"
      d="M11.74 8.621a31.77 31.77 0 0 0 5.36-4.513.62.62 0 1 0-.896-.858c-.235.245-1.671 2.471-4.683 5.081a.182.182 0 0 0 .22.29z"
      data-original="#7979f7"
   />
   <path
      fill="#fc6559"
      d="M12.445 9.653c1.719-.361 3.424-.88 5.078-.804a.464.464 0 0 0 .044-.927c-1.324-.06-4.101 1.01-5.219 1.365a.19.19 0 0 0 .097.366z"
      data-original="#fc6559"
   />
   <path
      fill="#00d67f"
      d="M12.357 10.64a20.653 20.653 0 0 0 5.809 1.746.59.59 0 1 0 .103-1.175 19.818 19.818 0 0 1-5.73-1.023.244.244 0 0 0-.182.453z"
      data-original="#00d67f"
   />
   <path
      fill="#7979f7"
      d="m12.113 11.35 3.575 4.11a.594.594 0 1 0 .827-.848l-4.203-3.467a.143.143 0 0 0-.2.205z"
      data-original="#7979f7"
   />
   <path
      fill="#fc6559"
      d="m11.46 12.196.936 3.906a.396.396 0 1 0 .753-.238l-1.48-3.734a.11.11 0 0 0-.209.066z"
      data-original="#fc6559"
   />
   <path
      fill="#00d67f"
      d="m10.606 11.605-1.348 4.564a.396.396 0 0 0 .76.224c.03-.1.226-1.192.892-4.705l.001-.01a.158.158 0 0 0-.305-.073z"
      data-original="#00d67f"
   />
   <path
      fill="#7979f7"
      d="m9.681 11.447-2.72 2.83a.396.396 0 1 0 .603.508l2.324-3.164a.135.135 0 0 0-.207-.174zm-.806-3.059c-1.123-.993-2.103-2.131-3.277-3.167a.396.396 0 1 0-.49.621c1.267.897 2.345 1.903 3.587 2.783.067.047.16.031.207-.036.044-.062.028-.151-.027-.201z"
      data-original="#7979f7"
   />
   <path
      fill="#00d67f"
      d="m59.35 7.694-4.561.979a.425.425 0 1 0 .233.816l4.388-1.585a.11.11 0 0 0-.06-.21z"
      data-original="#00d67f"
   />
   <path
      fill="#fc6559"
      d="m59.51 6.997-3.065-.912a.381.381 0 1 0-.16.744l.056.007 3.1.4.018.003a.124.124 0 0 0 .051-.242z"
      data-original="#fc6559"
   />
   <path
      fill="#00d67f"
      d="M59.986 6.91c-.501-1.52-.84-3.074-1.357-4.631a.407.407 0 1 0-.753.306l.004.008c.691 1.408 1.251 2.933 1.958 4.379a.08.08 0 0 0 .108.037.082.082 0 0 0 .04-.1z"
      data-original="#00d67f"
   />
   <path
      fill="#fc6559"
      d="M60.456 6.4c.293-1.188.83-2.286 1.372-3.392a.326.326 0 1 0-.6-.25c-.405 1.164-.82 2.362-.972 3.606a.102.102 0 0 0 .2.037z"
      data-original="#fc6559"
   />
   <path
      fill="#7979f7"
      d="M61.13 6.54a21.78 21.78 0 0 0 3.674-3.095.425.425 0 1 0-.65-.547 21.23 21.23 0 0 1-3.175 3.443.125.125 0 0 0 .151.198z"
      data-original="#7979f7"
   />
   <path
      fill="#fc6559"
      d="M61.613 7.246c1.179-.247 2.348-.602 3.482-.55a.318.318 0 1 0-.006-.636c-1.284.083-2.408.576-3.542.936a.13.13 0 0 0 .066.25z"
      data-original="#fc6559"
   />
   <path
      fill="#00d67f"
      d="M61.553 7.924a14.16 14.16 0 0 0 3.982 1.196.405.405 0 1 0 .071-.805 13.587 13.587 0 0 1-3.929-.701.167.167 0 0 0-.124.31z"
      data-original="#00d67f"
   />
   <path
      fill="#7979f7"
      d="m61.385 8.41 2.451 2.818a.408.408 0 1 0 .567-.581l-2.88-2.378a.098.098 0 0 0-.138.14z"
      data-original="#7979f7"
   />
   <path
      fill="#fc6559"
      d="m60.938 8.99.642 2.678a.271.271 0 1 0 .516-.163l-1.015-2.56a.075.075 0 0 0-.143.045z"
      data-original="#fc6559"
   />
   <path
      fill="#00d67f"
      d="m60.352 8.585-.924 3.129a.271.271 0 1 0 .527.128l.003-.017.603-3.183v-.007a.108.108 0 0 0-.209-.05z"
      data-original="#00d67f"
   />
   <path
      fill="#7979f7"
      d="m59.718 8.477-1.865 1.94a.271.271 0 1 0 .414.348l1.593-2.169a.093.093 0 0 0-.142-.12zm-.552-2.097c-.77-.682-1.442-1.462-2.247-2.171a.271.271 0 1 0-.336.425l.008.006c.822.577 1.595 1.295 2.451 1.902.046.032.11.021.142-.025a.106.106 0 0 0-.019-.138z"
      data-original="#7979f7"
   />
   <path
      fill="#00d67f"
      d="m53.032 58.546-7.784 1.67a.726.726 0 1 0 .304 1.419c.102-.022-.157.061 7.583-2.732a.186.186 0 0 0-.103-.357z"
      data-original="#00d67f"
   />
   <path
      fill="#fc6559"
      d="m53.305 57.355-5.23-1.555a.651.651 0 1 0-.371 1.248c.089.026 5.562.728 5.483.716l.03.004a.212.212 0 0 0 .088-.413z"
      data-original="#fc6559"
   />
   <path
      fill="#00d67f"
      d="M54.117 57.207c-.856-2.592-1.434-5.245-2.316-7.902a.695.695 0 1 0-1.285.522c1.338 2.777 2.198 5.132 3.348 7.486a.138.138 0 0 0 .184.063.14.14 0 0 0 .07-.17z"
      data-original="#00d67f"
   />
   <path
      fill="#fc6559"
      d="M54.919 56.338c.5-2.028 1.416-3.901 2.34-5.79a.556.556 0 1 0-1.023-.426c-.691 1.986-1.4 4.032-1.658 6.154a.173.173 0 0 0 .34.062z"
      data-original="#fc6559"
   />
   <path
      fill="#7979f7"
      d="M56.07 56.575a37.168 37.168 0 0 0 6.268-5.28.726.726 0 1 0-1.108-.933 36.227 36.227 0 0 1-5.418 5.874.213.213 0 0 0 .258.34z"
      data-original="#7979f7"
   />
   <path
      fill="#fc6559"
      d="M56.893 57.782c2.012-.422 4.006-1.029 5.942-.94a.543.543 0 1 0-.01-1.084c-2.192.141-4.11.982-6.044 1.596a.222.222 0 0 0 .112.428z"
      data-original="#fc6559"
   />
   <path
      fill="#00d67f"
      d="M56.79 58.938c2.13 1 4.426 1.698 6.796 2.042a.691.691 0 1 0 .121-1.375 23.185 23.185 0 0 1-6.704-1.196.286.286 0 0 0-.213.529z"
      data-original="#00d67f"
   />
   <path
      fill="#7979f7"
      d="m56.505 59.767 4.182 4.81a.695.695 0 1 0 .968-.993l-4.917-4.057a.168.168 0 0 0-.233.24z"
      data-original="#7979f7"
   />
   <path
      fill="#fc6559"
      d="m55.741 60.757 1.095 4.57a.463.463 0 1 0 .882-.278l-1.733-4.37a.128.128 0 0 0-.244.078z"
      data-original="#fc6559"
   />
   <path
      fill="#00d67f"
      d="m54.742 60.065-1.577 5.34a.463.463 0 1 0 .9.218c.019-.1 1.052-5.56 1.032-5.46l.002-.011a.184.184 0 0 0-.357-.087z"
      data-original="#00d67f"
   />
   <path
      fill="#7979f7"
      d="m53.66 59.881-3.183 3.31a.463.463 0 1 0 .667.642c.095-.1.442-.596 2.758-3.748a.158.158 0 0 0-.242-.204zm-.943-3.579c-1.314-1.162-2.46-2.493-3.834-3.704a.463.463 0 1 0-.573.726c1.482 1.05 2.743 2.226 4.196 3.255a.174.174 0 0 0 .243-.042.182.182 0 0 0-.032-.235zM14.113 23.886c.898 1.227.953 3.227.135 4.865a5.335 5.335 0 0 1-.567.899c.902 1.923.215 4.593-1.258 6.15-.632.668-1.397 1.122-2.174 1.334-.217 1.463-1.517 2.283-2.972 2.262a5.224 5.224 0 0 1-3.932-1.885.291.291 0 0 1 .446-.373 4.58 4.58 0 0 0 3.494 1.677c1.07.015 2.09-.514 2.35-1.564-.647.068-1.284-.035-1.836-.33-1.274-.676-1.278-2.118-.518-2.779.536-.466 1.277-.355 1.936.298.591.585.999 1.243 1.056 2.083a4.242 4.242 0 0 0 1.728-1.123c1.233-1.304 1.893-3.591 1.253-5.267-.84.84-1.91 1.333-2.922 1.28-1.636-.083-2.296-1.639-1.56-2.832.343-.557.971-.902 1.723-.944 1.158-.065 2.209.499 2.87 1.46.135-.191.256-.394.363-.606.713-1.428.679-3.22-.084-4.261a.291.291 0 0 1 .47-.344zm-1.133 5.688c-.542-.883-1.45-1.411-2.453-1.356-.264.014-.916.11-1.26.668-.48.777-.155 1.88 1.095 1.947.89.045 1.872-.45 2.618-1.26zm-3.281 7.085c-.02-.728-.371-1.291-.891-1.806-.206-.203-.728-.637-1.146-.272-.451.392-.523 1.332.409 1.826.487.255 1.051.337 1.628.252zm20.696 19.098a.302.302 0 0 1 .052.145c.13 1.738-1.238 3.865-3.415 4.663-.252 2.11-2.246 4.012-4.32 4.554-.89.233-1.78.215-2.55-.017-.959 1.127-2.496 1.135-3.72.348a5.224 5.224 0 0 1-2.34-3.679.291.291 0 0 1 .576-.08 4.58 4.58 0 0 0 2.079 3.27c.9.579 2.045.67 2.82-.085-.584-.284-1.07-.708-1.383-1.25-.724-1.248.036-2.474 1.03-2.633.702-.112 1.272.374 1.486 1.277.192.81.19 1.583-.205 2.326.63.153 1.342.148 2.06-.039 1.736-.454 3.506-2.047 3.849-3.808-1.156.27-2.326.12-3.157-.459-1.345-.935-1.082-2.605.174-3.228 1.37-.681 3.521.564 3.625 2.866 1.814-.764 2.915-2.598 2.81-3.983a.291.291 0 0 1 .53-.188zm-3.918 4.373c.013-1.988-1.758-3.06-2.788-2.548-.818.407-1.125 1.513-.1 2.232.732.51 1.827.609 2.888.316zm-6.532 4.278c.368-.629.369-1.292.2-2.004-.414-1.724-2.259-.469-1.448.93a2.66 2.66 0 0 0 1.248 1.074z"
      data-original="#7979f7"
   />
   <path
      fill="#fc6559"
      d="M62.997 22.885c-.77-2.147-3.535-2.864-5.35-1.75-2.511 1.49-2.413 4.992-.176 4.962 1.196.044 2.055-1.07 1.871-2.331-.298-1.879-2.756-2.926-5.176-1.35-1.476.969-3.05 2.828-3.812 4.47-.417.9-.572 2.068.014 3.005.638.996 2.019 1.304 2.833.413 1.525-1.56-.354-4.302-3.095-3.496-.986.287-1.805.971-2.362 1.798-1.14 1.71-1.08 3.854-.707 5.732a.166.166 0 0 0 .325-.063c-.354-1.844-.37-3.897.695-5.456 1.313-1.923 3.545-2.193 4.668-1.11.646.595.787 1.679.154 2.283-.581.665-1.68.384-2.11-.353-1.28-2.065 1.935-5.639 3.69-6.765 2.06-1.323 4.102-.49 4.3.978.138.828-.45 1.691-1.276 1.63-.397-.005-.756-.199-.924-.529-.42-.78.032-2.444 1.422-3.248 1.495-.921 3.802-.244 4.345 1.406a.354.354 0 1 0 .676-.213l-.005-.013z"
      data-original="#fc6559"
   />
   <path fill="#f9b938" d="m43.067 25.395-4.698 6.169 2.214-8.042z" data-original="#f9b938" />
   <path
      fill="#3772ff"
      d="M18.218 28.636C14.145 39.1 9.09 50.077 4.848 60.63c-.444 1.107.676 2.199 1.773 1.732 10.62-4.523 22.053-9.471 32.505-13.905z"
      data-original="#c080ff"
   />
   <path
      fill="#e4e3ff"
      d="M14.602 58.939c-1.718.752-3.437 1.476-5.128 2.201A48.932 48.932 0 0 1 5.46 59.1c.51-1.235 1.02-2.484 1.544-3.732a52.94 52.94 0 0 0 7.598 3.57zm10.806-4.631c-2 .859-4.014 1.731-6.014 2.577a56.778 56.778 0 0 1-11.007-4.779c.523-1.235 1.047-2.483 1.584-3.718a52.766 52.766 0 0 0 15.437 5.92zm12.323-5.263c-2.322.994-4.698 2-7.1 3.034A70.24 70.24 0 0 1 11.3 45.273a442.104 442.104 0 0 0 1.597-3.718 65.926 65.926 0 0 0 24.834 7.49zm-4.281-5.973a69.853 69.853 0 0 1-18.969-5.276 168.454 168.454 0 0 0 1.544-3.718 66.703 66.703 0 0 0 12.122 3.973z"
      data-original="#e4e3ff"
   />
   <path
      fill="#1e315f"
      d="M31.98 45.833c-2.466-1.634-4.734-3.682-6.837-5.787-2.08-2.084-4.01-4.342-5.55-6.748l-.123-.204c-.928-1.514-1.945-3.81-.98-4.95 1.211-1.451 4.57.052 6.428 1.094 2.515 1.41 4.743 3.346 6.906 5.283 2.148 1.907 4.133 3.978 5.855 6.224 1.974 2.583 2.942 4.82 2.447 6.558-.885 3.065-5.988-.031-8.146-1.47z"
      data-original="#474646"
   />
   <path
      fill="#f9b938"
      d="M37.653 43.196c.372 1.32 1.478 2.393 2.773 2.798 1.303.427 2.753.038 3.883-.732 1.148-.774 2.005-1.929 2.71-3.152.366-.574.605-1.37 1.439-1.834.892-.436 1.868.047 2.354.717.503.691.638 1.475.76 2.206.052.383.075.833-.112 1.277-.16.422-.609.854-1.155.878-.515.04-1-.221-1.296-.57-.302-.35-.461-.757-.544-1.179-.146-.85.096-1.71.58-2.384 1.002-1.44 3.018-1.699 4.475-1.04 1.53.663 2.495 2.132 2.866 3.646a.528.528 0 1 1-1.029.242c-.283-1.272-1.077-2.476-2.23-2.991-1.136-.534-2.643-.337-3.355.673-.368.488-.55 1.127-.458 1.708.085.589.493 1.114.937 1.075.927-.053.55-2.193-.04-3.101-.33-.479-.985-.765-1.442-.525-.49.23-.795.912-1.176 1.54-.754 1.253-1.683 2.474-2.96 3.304-1.247.82-2.884 1.239-4.363.726-1.45-.485-2.64-1.686-3.033-3.17a.216.216 0 0 1 .416-.112z"
      data-original="#f9b938"
   />
   <path
      fill="#00d67f"
      d="M34.195 31.436c.256.768.538 1.594.415 2.472a2.382 2.382 0 0 1-.542 1.196c-.288.34-.733.596-1.208.602-.474.015-.91-.18-1.268-.424a3.352 3.352 0 0 1-.922-.931c-.23-.362-.42-.911-.142-1.404.28-.496.885-.621 1.331-.542.976.154 1.623.994 1.858 1.846.254.87.048 1.866-.497 2.581a3.637 3.637 0 0 1-2.228 1.407c-.88.174-1.793.055-2.61-.284l-.006-.003a.372.372 0 1 1 .3-.68c1.356.632 3.134.403 4.036-.818.457-.58.632-1.343.447-2.056-.169-.695-.702-1.368-1.381-1.477-.34-.063-.681.028-.821.272-.155.243-.076.601.112.914.387.6 1.083 1.182 1.782 1.187.717.01 1.288-.713 1.407-1.442.127-.759-.108-1.551-.35-2.323a.15.15 0 0 1 .287-.093z"
      data-original="#00d67f"
   />
   <path
      fill="#7979f7"
      d="m37.033 38.525.799-1.647-1.179-1.086 1.82.16s.805-1.265 1.054-1.908c.117.722.195 2.019.195 2.019l1.876.253-1.65.864.037 2.013-1.152-1.544z"
      data-original="#7979f7"
   />
   <path
      fill="#f9b938"
      d="m28.562 17.644 1.08-2.229-1.594-1.468 2.463.216s1.088-1.712 1.425-2.582c.158.978.264 2.732.264 2.732l2.538.343-2.232 1.169.05 2.723-1.558-2.089z"
      data-original="#f9b938"
   />
   <path
      fill="#7979f7"
      d="m56.984 38.032 1.343-2.77-1.982-1.825 3.06.268s1.354-2.127 1.773-3.209c.196 1.215.327 3.395.327 3.395l3.155.427-2.774 1.453.061 3.385-1.936-2.597z"
      data-original="#7979f7"
   />
   <path
      fill="#f9b938"
      d="m40.493 12.384 1.342-2.77-1.981-1.825 3.06.268s1.353-2.127 1.772-3.209c.196 1.215.328 3.396.328 3.396l3.155.426-2.775 1.453.062 3.385-1.937-2.596z"
      data-original="#f9b938"
   />
   <path
      fill="#fc6559"
      d="M29.305 29.14a.504.504 0 0 1-.095-.998c1.48-.287 3.01-.585 4.32-1.31 1.39-.773 2.31-1.98 2.46-3.231.13-1.088-.3-2.313-.236-3.562a4.856 4.856 0 0 1 1.602-3.342 4.873 4.873 0 0 1 3.5-1.22.504.504 0 0 1 .473.534.492.492 0 0 1-.533.472 3.89 3.89 0 0 0-2.77.964 3.894 3.894 0 0 0-1.266 2.645c-.061 1.16.385 2.328.23 3.628-.188 1.571-1.299 3.063-2.971 3.991-1.45.805-3.06 1.117-4.617 1.42a.479.479 0 0 1-.097.009z"
      data-original="#fc6559"
   />
   <path
      fill="#00d67f"
      d="M19.692 30.424c1.577-.058 3.078-1.08 3.712-2.524.635-1.444.37-3.24-.654-4.44-.305-.358-.698-.817-.476-1.231.244-.456.911-.31 1.427-.276.98.065 1.947-.593 2.309-1.506.73-1.843-.84-3.97-3.157-3.8-.286.021-.574.078-.857.03-.283-.046-.57-.23-.626-.511-.104-.519.331-.758 3.403-3.681l-.191-1.916c-1.908 1.088-3.704 2.57-4.907 4.408-.438.668-.831 1.456-.662 2.237.151.702.746 1.246 1.416 1.506s1.407.275 2.125.237c.438-.023.905-.06 1.29.15s.61.775.313 1.098c-.338.365-.928.12-1.406-.015-.86-.24-1.859.021-2.438.7s-.666 1.755-.149 2.483c.517.725 1.478 1.01 2.05 1.691.458.544.615 1.325.405 2.004-.46 1.48-2.074 1.514-3.343 1.81zm27.633-9.129a2.082 2.082 0 0 1-1.505-1.827c-.038-.574.158-1.16.596-1.786-1.65.066-3.275.859-4.31 2.15-.264.327-.754-.071-.493-.396 1.259-1.571 3.3-2.477 5.314-2.383 1.224-1.333 2.98-2.205 4.78-2.357a.316.316 0 1 1 .053.63 6.809 6.809 0 0 0-4.036 1.82c.773.149 1.351.465 1.722.942.518.665.557 1.66.092 2.365a2.082 2.082 0 0 1-2.213.842zm-.13-3.589c-.408.483-.786 1.095-.745 1.72.039.57.484 1.112 1.037 1.258a1.455 1.455 0 0 0 1.524-.58 1.453 1.453 0 0 0-.064-1.628c-.316-.406-.866-.66-1.637-.757a3.607 3.607 0 0 0-.115-.013z"
      data-original="#00d67f"
   />
   <path
      fill="#7979f7"
      d="M35.335 10.558a1.9 1.9 0 0 1-.491-.063 2.082 2.082 0 0 1-1.505-1.827c-.038-.574.158-1.16.596-1.786-1.65.066-3.275.859-4.31 2.15a.315.315 0 1 1-.493-.395c1.259-1.572 3.3-2.477 5.314-2.384 1.224-1.333 2.98-2.205 4.78-2.357a.316.316 0 1 1 .053.63 6.809 6.809 0 0 0-4.036 1.82c.773.149 1.351.465 1.722.942.518.665.557 1.66.092 2.365-.374.565-1.048.905-1.722.905zm-.621-3.652-.07.085c-.486.605-.707 1.14-.675 1.636.039.57.484 1.111 1.037 1.257a1.455 1.455 0 0 0 1.524-.58 1.453 1.453 0 0 0-.064-1.628c-.316-.406-.867-.66-1.637-.757a3.666 3.666 0 0 0-.115-.013z"
      data-original="#7979f7"
   />
   <path fill="#fc6559" d="m42.129 51.1-.81 5.785-2.94-4.168z" data-original="#fc6559" />
   <path
      fill="#f9b938"
      d="m32.088 65.001 1.193-2.461-1.76-1.622 2.719.238s1.202-1.89 1.574-2.851c.175 1.08.291 3.017.291 3.017l2.804.379-2.466 1.291.055 3.008-1.72-2.307zM4.84 24.592l.959-1.976-1.414-1.302 2.183.191s.966-1.517 1.264-2.29c.14.868.234 2.423.234 2.423l2.25.304-1.978 1.037.043 2.415L7 23.542z"
      data-original="#f9b938"
   />
   <path
      fill="#00d67f"
      d="m2.447 50.793.94-1.939L2 47.577l2.142.188s.947-1.49 1.24-2.246c.137.85.23 2.376.23 2.376l2.207.299-1.941 1.017.043 2.368-1.356-1.817z"
      data-original="#00d67f"
   />
</svg>
